<svg width="50" height="50" viewBox="0 0 50 50" fill="none" xmlns="http://www.w3.org/2000/svg">
<g id="raphael:coffee">
<path id="Vector" d="M12.2578 15.5984L15.4375 42.7125C15.4375 44.2391 19.7187 45.4781 25 45.4781C30.2813 45.4781 34.5625 44.2391 34.5625 42.7125L38.2812 15.3906C34.4453 16.9906 27.6375 17.1625 25.0031 17.1625C22.4875 17.1625 16.1672 17.0063 12.2609 15.6L12.2578 15.5984ZM37.7031 8.98906L37.1156 6.36406C37.1156 5.34844 31.6906 4.52344 25 4.52344C18.3094 4.52344 12.8844 5.35156 12.8844 6.36719L12.2969 8.9875C11.1812 9.43125 10.5469 9.9375 10.5469 10.4766V12.4844C10.5469 14.2031 17.0188 15.6 25 15.6C32.9812 15.6 39.4531 14.2031 39.4531 12.4828V10.475C39.4531 9.93594 38.8187 9.42812 37.7031 8.98594V8.98906Z" fill="black"/>
</g>
</svg>
